<?xml version="1.0" encoding="UTF-8"?>
<!-- Generator: visioncortex VTracer 0.6.3 -->
<svg version="1.1" xmlns="http://www.w3.org/2000/svg" width="1280" height="1280">
<path d="M0 0 C2.1 -0 4.2 -0 6.3 -0.01 C12.04 -0.01 17.78 -0.01 23.52 -0.01 C29.72 -0.01 35.92 -0.02 42.13 -0.02 C54.27 -0.03 66.4 -0.03 78.54 -0.03 C88.42 -0.03 98.29 -0.04 108.16 -0.04 C111.01 -0.04 113.86 -0.04 116.71 -0.04 C117.41 -0.04 118.12 -0.04 118.85 -0.04 C138.76 -0.05 158.66 -0.05 178.56 -0.05 C179.69 -0.05 179.69 -0.05 180.83 -0.05 C184.63 -0.05 188.43 -0.05 192.23 -0.05 C193.36 -0.05 193.36 -0.05 194.51 -0.05 C196.04 -0.05 197.56 -0.05 199.09 -0.05 C222.81 -0.05 246.53 -0.06 270.25 -0.07 C296.94 -0.09 323.63 -0.1 350.32 -0.1 C353.17 -0.1 356.02 -0.1 358.87 -0.09 C359.92 -0.09 359.92 -0.09 360.99 -0.09 C372.25 -0.09 383.5 -0.1 394.75 -0.11 C406.07 -0.12 417.4 -0.12 428.72 -0.11 C434.85 -0.11 440.98 -0.11 447.1 -0.12 C452.72 -0.13 458.34 -0.12 463.97 -0.12 C465.98 -0.11 468 -0.12 470.02 -0.12 C480.36 -0.15 490.59 0.13 500.88 1.04 C501.79 1.11 502.69 1.19 503.62 1.28 C511.86 2.08 520.5 3.09 526.92 8.7 C531.9 12.66 537.82 13.04 543.98 14.13 C560.51 17.2 560.51 17.2 565.86 23.26 C566.98 25.13 566.98 25.13 566.98 27.13 C567.61 27.3 568.24 27.47 568.89 27.65 C577.17 30 584.26 32.4 589.98 39.13 C590.31 39.86 590.64 40.58 590.98 41.32 C591.85 43.36 591.85 43.36 594.22 44 C606.08 48.85 615.61 61.73 621.84 72.48 C623.09 74.46 623.09 74.46 626.05 76.51 C630.53 80.52 631.97 85.62 633.61 91.31 C635.22 96.52 637.57 98.9 642.05 102 C648.89 109.52 648.85 123.95 650.28 133.64 C650.64 136.03 651.01 138.41 651.38 140.79 C651.49 141.51 651.59 142.23 651.69 142.97 C652.43 147.61 653.84 151.32 656.09 155.44 C662.19 166.95 660.13 183.57 660.12 196.14 C660.12 198.19 660.12 200.25 660.12 202.3 C660.13 207.92 660.13 213.55 660.13 219.18 C660.13 225.25 660.13 231.32 660.14 237.4 C660.15 249.29 660.15 261.18 660.15 273.08 C660.15 282.75 660.15 292.42 660.16 302.09 C660.16 304.87 660.16 307.66 660.16 310.44 C660.16 311.14 660.16 311.83 660.16 312.54 C660.16 332.02 660.17 351.49 660.17 370.97 C660.17 371.71 660.17 372.44 660.17 373.2 C660.17 376.91 660.17 380.63 660.17 384.35 C660.17 385.46 660.17 385.46 660.17 386.59 C660.17 388.09 660.17 389.58 660.17 391.07 C660.17 414.31 660.17 437.55 660.19 460.78 C660.2 486.91 660.21 513.03 660.21 539.15 C660.21 541.94 660.21 544.73 660.21 547.51 C660.21 548.54 660.21 548.54 660.21 549.59 C660.21 560.62 660.22 571.65 660.23 582.67 C660.23 593.76 660.24 604.85 660.23 615.94 C660.23 621.94 660.23 627.94 660.23 633.95 C660.24 639.45 660.24 644.95 660.23 650.45 C660.23 652.44 660.23 654.42 660.24 656.4 C660.33 689.47 660.33 689.47 653.5 701.81 C651.82 705.49 651.28 708.58 650.77 712.59 C650.58 714.03 650.38 715.46 650.19 716.9 C649.89 719.14 649.61 721.37 649.33 723.61 C647.89 735 646.18 744.56 637.37 752.58 C634.68 755.6 633.67 759.47 632.42 763.26 C629.22 772.88 629.22 772.88 623.98 776.13 C623.14 776.5 622.29 776.88 621.42 777.26 C618.59 779.43 618.23 780.71 617.05 784.01 C615.22 789.07 613.44 791.16 608.98 794.13 C608.31 794.43 607.63 794.72 606.94 795.02 C604.57 796.37 603.96 797.54 602.73 799.95 C599.61 805.26 595.16 808.17 589.3 809.95 C586.57 811.35 586.14 812.37 584.67 815.01 C581.37 820.66 577 821.99 571.08 824.24 C565.07 826.59 560.52 828.82 555.99 833.49 C551.13 837.47 545.57 838.57 539.47 839.34 C538.04 839.54 536.6 839.73 535.17 839.93 C532.96 840.22 530.74 840.51 528.53 840.79 C520.22 841.84 512.74 843.1 505.2 847.01 C496.71 851.31 486.35 851.29 477.02 851.27 C476.16 851.27 475.3 851.27 474.42 851.28 C471.55 851.28 468.68 851.28 465.81 851.28 C463.73 851.28 461.65 851.29 459.57 851.29 C453.85 851.3 448.14 851.31 442.42 851.31 C436.26 851.31 430.09 851.32 423.93 851.33 C409.74 851.35 395.56 851.36 381.38 851.37 C374.36 851.37 367.35 851.38 360.34 851.38 C336.31 851.4 312.28 851.42 288.25 851.42 C286.75 851.42 285.24 851.42 283.73 851.42 C282.98 851.42 282.24 851.42 281.47 851.43 C277.68 851.43 273.89 851.43 270.11 851.43 C268.98 851.43 268.98 851.43 267.83 851.43 C243.47 851.44 219.12 851.46 194.76 851.49 C168.99 851.53 143.21 851.55 117.44 851.55 C114.61 851.55 111.78 851.55 108.94 851.55 C108.25 851.55 107.55 851.55 106.83 851.55 C95.64 851.55 84.44 851.57 73.24 851.59 C61.98 851.61 50.71 851.62 39.45 851.61 C33.35 851.6 27.26 851.6 21.16 851.62 C15.57 851.64 9.98 851.64 4.39 851.63 C2.37 851.62 0.36 851.63 -1.65 851.64 C-16.28 851.72 -31.07 851.18 -44.18 844.01 C-47.25 842.54 -50.36 842.21 -53.7 841.79 C-54.4 841.69 -55.1 841.6 -55.82 841.5 C-58.03 841.2 -60.24 840.91 -62.45 840.63 C-85.95 837.66 -85.95 837.66 -94.29 827.6 C-96.62 825.62 -98.9 825.05 -101.83 824.2 C-108.82 821.96 -112.94 819.51 -117.49 813.7 C-120.05 811.08 -123.23 809.51 -126.39 807.69 C-133.79 803.3 -139.25 798.27 -144.02 791.13 C-144.43 790.55 -144.84 789.97 -145.27 789.36 C-148.02 785.43 -148.02 785.43 -148.02 783.13 C-149.34 782.47 -150.66 781.81 -152.02 781.13 C-152.02 780.47 -152.02 779.81 -152.02 779.13 C-152.59 778.93 -153.17 778.72 -153.77 778.51 C-157.56 776.19 -159.53 773.03 -160.62 768.8 C-160.81 767.96 -161.01 767.12 -161.2 766.26 C-162.38 761.88 -163.93 760 -167.45 757.2 C-175.54 750.59 -176.48 740.98 -177.89 731.15 C-178.76 725.43 -180.58 721.11 -184.02 716.38 C-188.42 709.23 -189.54 701.13 -190.19 692.88 C-190.27 691.93 -190.35 690.98 -190.43 690 C-191.23 679.73 -191.3 669.49 -191.27 659.19 C-191.27 657.08 -191.28 654.96 -191.28 652.84 C-191.29 647.1 -191.29 641.35 -191.28 635.6 C-191.27 629.38 -191.28 623.15 -191.29 616.93 C-191.3 605.46 -191.29 594 -191.29 582.53 C-191.28 571.94 -191.28 561.34 -191.28 550.75 C-191.29 550.04 -191.29 549.34 -191.29 548.61 C-191.29 545.75 -191.29 542.88 -191.29 540.02 C-191.29 513.21 -191.29 486.4 -191.28 459.59 C-191.27 435.81 -191.27 412.03 -191.28 388.26 C-191.29 361.49 -191.29 334.73 -191.29 307.96 C-191.29 305.1 -191.29 302.24 -191.28 299.39 C-191.28 298.68 -191.28 297.98 -191.28 297.25 C-191.28 286.67 -191.28 276.09 -191.29 265.5 C-191.3 253.46 -191.29 241.41 -191.28 229.37 C-191.28 223.23 -191.28 217.09 -191.28 210.96 C-191.29 205.33 -191.29 199.7 -191.27 194.06 C-191.27 192.04 -191.27 190.02 -191.28 187.99 C-191.3 177.89 -191.06 167.89 -190.13 157.83 C-190.05 156.99 -189.97 156.15 -189.89 155.28 C-189.05 147.11 -188.22 139.75 -183.02 133.13 C-182.26 132.54 -182.26 132.54 -181.48 131.93 C-179.27 129.21 -179.04 126.13 -178.52 122.76 C-178.26 121.31 -178.01 119.87 -177.76 118.43 C-177.51 117 -177.26 115.56 -177.02 114.13 C-174.42 99.22 -174.42 99.22 -168.02 94.13 C-167.01 93.77 -167.01 93.77 -165.97 93.4 C-162.92 91.42 -162.55 88.35 -161.64 85.01 C-158.9 75.99 -154.93 70.56 -147.61 64.63 C-145 62.18 -143.7 59.28 -142.02 56.13 C-138.99 51.69 -135.87 49.41 -131.02 47.13 C-127.54 44.53 -124.92 42.06 -122.27 38.63 C-117.45 32.87 -110.75 30.51 -103.64 28.7 C-99.92 27.67 -99.21 27.38 -96.7 24.2 C-96.15 23.19 -95.59 22.17 -95.02 21.13 C-91.59 17.95 -88.89 16.52 -84.33 15.57 C-83.21 15.33 -82.08 15.09 -80.92 14.84 C-78.03 14.32 -75.15 13.85 -72.24 13.42 C-71.42 13.3 -70.61 13.18 -69.77 13.05 C-68.16 12.82 -66.55 12.6 -64.93 12.4 C-62.43 12.08 -62.43 12.08 -59.02 11.13 C-57.74 9.26 -57.74 9.26 -57.02 7.13 C-53.15 4.19 -49.37 3.37 -44.64 2.51 C-43.38 2.27 -42.11 2.03 -40.81 1.78 C-27.32 -0.25 -13.6 -0.01 0 0 Z M-47.39 46.07 C-53.59 49.98 -59.11 52.16 -66.3 53.59 C-77.08 55.17 -77.08 55.17 -86.22 60.28 C-87.54 62.61 -87.54 62.61 -88.61 65.01 C-90.58 67.99 -92.69 68.47 -96.02 69.63 C-101.72 71.66 -104.1 73.97 -107.13 79.15 C-108.15 81.07 -108.15 81.07 -108.02 83.13 C-108.72 83.38 -109.42 83.63 -110.14 83.88 C-116.21 86.4 -116.21 86.4 -120.11 91.44 C-120.76 93.2 -121.4 94.96 -122.03 96.73 C-123.77 100.96 -126.52 103.4 -130.57 105.39 C-133.79 107.68 -134 109.26 -134.79 113.09 C-135.05 114.28 -135.32 115.47 -135.59 116.7 C-135.86 117.95 -136.12 119.21 -136.39 120.51 C-138.72 130.7 -141.04 139.44 -147.02 148.13 C-153.78 158.27 -151.3 176.81 -151.27 188.57 C-151.27 190.7 -151.28 192.84 -151.28 194.97 C-151.29 200.8 -151.29 206.62 -151.28 212.45 C-151.27 218.75 -151.28 225.05 -151.29 231.34 C-151.3 242.96 -151.29 254.57 -151.29 266.18 C-151.28 276.91 -151.28 287.64 -151.28 298.37 C-151.29 299.08 -151.29 299.79 -151.29 300.53 C-151.29 303.42 -151.29 306.32 -151.29 309.22 C-151.29 336.35 -151.29 363.48 -151.28 390.61 C-151.27 414.69 -151.27 438.77 -151.28 462.84 C-151.29 489.93 -151.29 517.01 -151.29 544.09 C-151.29 546.99 -151.29 549.88 -151.28 552.77 C-151.28 553.48 -151.28 554.19 -151.28 554.92 C-151.28 565.64 -151.28 576.36 -151.29 587.08 C-151.3 599.27 -151.29 611.47 -151.28 623.67 C-151.28 629.88 -151.28 636.1 -151.28 642.32 C-151.29 648.02 -151.29 653.72 -151.27 659.42 C-151.27 661.47 -151.27 663.53 -151.28 665.58 C-151.3 675 -151.19 684.34 -150.18 693.7 C-150.11 694.4 -150.04 695.09 -149.97 695.8 C-149.35 700.75 -147.83 703.7 -144.53 707.35 C-139.77 712.95 -138.58 720.77 -137.02 727.76 C-135.02 736.61 -133.05 742.77 -125.69 748.58 C-121.92 752.09 -120.36 757 -118.89 761.82 C-116.78 765.55 -115.98 765.83 -112.2 767.45 C-107.8 769.35 -106.12 771.02 -103.89 775.26 C-102.03 778.79 -100.97 780.67 -97.14 782.01 C-95.77 782.39 -94.39 782.76 -93.02 783.13 C-86.7 785.73 -81.19 789.37 -76.76 794.63 C-70.96 799.64 -63.36 799.99 -56.08 800.95 C-46.01 802.36 -36.27 804.34 -26.46 807.03 C-12.4 810.82 1.19 811.43 15.65 811.43 C17.62 811.43 19.59 811.44 21.55 811.45 C26.93 811.47 32.3 811.48 37.68 811.48 C43.48 811.49 49.29 811.51 55.1 811.53 C69.12 811.57 83.13 811.59 97.15 811.6 C103.76 811.61 110.38 811.62 117 811.63 C139.02 811.67 161.05 811.7 183.07 811.71 C184.49 811.71 185.92 811.71 187.34 811.72 C188.4 811.72 188.4 811.72 189.48 811.72 C193.05 811.72 196.62 811.72 200.19 811.72 C200.9 811.72 201.61 811.73 202.34 811.73 C225.29 811.74 248.23 811.79 271.17 811.85 C295.49 811.92 319.81 811.96 344.12 811.97 C357.35 811.97 370.58 811.99 383.82 812.04 C395.09 812.08 406.37 812.1 417.64 812.08 C423.38 812.07 429.12 812.07 434.86 812.11 C460.02 812.28 482.81 810.77 507.11 804.1 C513.95 802.4 520.89 801.36 527.86 800.32 C528.52 800.22 529.18 800.12 529.87 800.02 C532.65 799.61 535.43 799.2 538.22 798.81 C542.75 797.7 545.33 796.16 547.83 792.21 C550.52 788.36 553.22 786.96 557.36 784.95 C558 784.62 558.65 784.29 559.32 783.95 C562.28 782.45 565.24 781.02 568.27 779.67 C571.27 777.97 572.34 776.65 574.05 773.7 C576.99 768.97 579.91 766.23 584.87 763.61 C589.05 760.29 590.31 756.74 592.3 751.88 C596.74 741.62 596.74 741.62 601.86 737.95 C607.08 733.93 607.49 729.21 608.32 722.98 C608.42 722.21 608.52 721.44 608.62 720.65 C609.32 715.79 610.37 711 611.36 706.2 C611.96 703.22 612.55 700.24 613.12 697.25 C613.7 694.33 614.42 691.47 615.2 688.59 C620.53 667.59 619.68 646.22 619.59 624.72 C619.57 618.85 619.59 612.99 619.59 607.12 C619.6 595.67 619.59 584.22 619.56 572.77 C619.54 563.45 619.54 554.14 619.53 544.83 C619.53 544.17 619.53 543.5 619.53 542.82 C619.53 540.12 619.53 537.43 619.53 534.73 C619.53 509.5 619.51 484.27 619.47 459.04 C619.43 436.66 619.41 414.28 619.41 391.9 C619.41 391.19 619.41 390.48 619.41 389.74 C619.41 387.59 619.41 385.43 619.41 383.28 C619.41 380.41 619.41 377.55 619.41 374.69 C619.41 373.63 619.41 373.63 619.41 372.55 C619.4 350.44 619.39 328.33 619.37 306.22 C619.36 297.58 619.35 288.93 619.35 280.28 C619.34 267.63 619.33 254.98 619.31 242.33 C619.3 236.55 619.29 230.78 619.29 225 C619.29 219.7 619.28 214.41 619.26 209.11 C619.26 207.21 619.26 205.3 619.26 203.39 C619.28 187.79 618.05 173.1 614.05 157.95 C611.78 149.04 610.05 140.26 609.1 131.12 C608.09 122.41 605.35 116.2 598.98 110.13 C594.78 104.84 592.27 99.91 590.82 93.3 C589.75 90.54 588.47 89.67 585.98 88.13 C584.99 87.7 584 87.27 582.98 86.82 C578.46 84.28 576.57 80.85 574.92 76.01 C572.22 72 569.13 71.56 564.63 70.12 C561.15 68.82 559.38 66.93 556.98 64.13 C550.85 57.46 543.63 55.83 535.05 53.64 C517.3 49.12 517.3 49.12 511.71 44.09 C502.05 37.17 482.96 39.85 471.54 39.88 C469.4 39.88 467.27 39.87 465.13 39.87 C459.31 39.86 453.48 39.87 447.65 39.87 C441.35 39.88 435.05 39.87 428.75 39.86 C417.14 39.86 405.52 39.86 393.91 39.86 C383.17 39.87 372.44 39.87 361.71 39.87 C360.64 39.87 360.64 39.87 359.55 39.87 C356.65 39.86 353.76 39.86 350.86 39.86 C323.72 39.86 296.58 39.86 269.45 39.87 C245.36 39.88 221.28 39.88 197.2 39.87 C170.11 39.86 143.02 39.86 115.93 39.86 C113.04 39.86 110.15 39.87 107.26 39.87 C106.19 39.87 106.19 39.87 105.1 39.87 C94.38 39.87 83.65 39.87 72.93 39.86 C60.73 39.86 48.53 39.86 36.34 39.87 C30.12 39.87 23.9 39.88 17.68 39.87 C11.98 39.86 6.28 39.87 0.58 39.88 C-1.48 39.88 -3.53 39.88 -5.59 39.87 C-27.43 39.04 -27.43 39.04 -47.39 46.07 Z " fill="#000000" transform="translate(412.01734924316406,220.8662872314453)"/>
<path d="M0 0 C0.81 -0 1.61 -0 2.44 -0 C43.08 0 43.08 0 54.05 10.66 C58.01 13.97 62.41 14.69 67.38 15.69 C75.83 17.4 83.01 19.62 88.38 26.75 C91.38 30.57 94.68 31.64 99.17 33.24 C103.88 35.16 106.03 38.25 108.25 42.69 C110.38 46.71 113.43 48.02 117.39 50.02 C121.65 52.38 123.35 55.84 125.25 60.12 C126.81 63.44 128.3 64.96 131.38 66.94 C136.88 70.67 138.98 76.22 141.5 82.19 C142.08 83.48 142.08 83.48 142.66 84.81 C143.5 87.19 143.5 87.19 143.5 91.19 C144.16 91.19 144.82 91.19 145.5 91.19 C145.61 90.58 145.72 89.98 145.83 89.35 C149.28 71.12 149.28 71.12 154.5 66.19 C155.81 65.45 157.12 64.72 158.44 64 C162.94 61.39 164.24 58.14 166.29 53.49 C168.46 49.36 172.06 47.87 176.12 45.94 C178.72 44.03 179.03 43.19 180.19 40.31 C182.64 34.83 187.21 33.4 192.5 31.19 C196.05 29.45 197.69 28.02 199.75 24.75 C204.31 18.1 211.67 17.01 219.19 15.56 C220.43 15.34 221.67 15.12 222.95 14.9 C226.28 14.23 229.34 13.44 232.5 12.19 C233.2 10.87 233.87 9.54 234.5 8.19 C246.6 -2.6 269.17 0.02 284.34 0.06 C286.86 0.06 289.39 0.06 291.91 0.05 C319.72 0.04 319.72 0.04 331.12 3 C332.4 3.32 333.67 3.63 334.98 3.96 C340.02 5.72 343.52 7.72 346.5 12.19 C348.89 13.11 348.89 13.11 351.75 13.69 C352.82 13.94 353.89 14.19 355 14.45 C357.38 14.95 359.76 15.41 362.16 15.83 C369.31 17.14 374.86 18.29 379.5 24.19 C379.93 25.03 380.36 25.86 380.8 26.73 C382.99 29.89 384.84 30.44 388.44 31.69 C393.25 33.36 395.65 34.91 398.5 39.19 C398.75 40.03 399 40.88 399.25 41.75 C400.97 45.1 403.2 45.65 406.54 47.18 C411.25 49.6 412.67 53.53 414.38 58.25 C416.16 63.01 418.07 64.6 422.5 67.19 C426.57 72.47 427.62 76.16 427.63 82.71 C427.63 84.4 427.63 84.4 427.64 86.13 C427.64 87.37 427.64 88.62 427.63 89.89 C427.64 91.87 427.64 91.87 427.64 93.89 C427.65 97.55 427.65 101.22 427.65 104.88 C427.65 108.83 427.65 112.78 427.66 116.73 C427.66 124.48 427.67 132.22 427.67 139.96 C427.67 146.26 427.67 152.55 427.67 158.85 C427.68 176.7 427.69 194.55 427.69 212.4 C427.69 213.84 427.69 213.84 427.69 215.31 C427.69 216.76 427.69 216.76 427.69 218.23 C427.68 233.84 427.69 249.45 427.71 265.06 C427.72 281.09 427.73 297.12 427.73 313.15 C427.73 322.15 427.73 331.15 427.74 340.14 C427.75 347.81 427.75 355.47 427.75 363.14 C427.74 367.04 427.74 370.95 427.75 374.86 C427.76 378.44 427.76 382.03 427.75 385.61 C427.75 387.51 427.75 389.41 427.76 391.31 C427.68 411.12 427.68 411.12 421.5 418.19 C417.86 421.06 415.27 421.51 410.67 420.98 C409.97 420.89 409.28 420.79 408.56 420.69 C407.53 420.59 407.53 420.59 406.47 420.48 C401.11 419.79 398.29 418.03 394.5 414.19 C394.5 413.53 394.5 412.87 394.5 412.19 C391.01 410.69 387.49 409.6 383.83 408.59 C376.07 406.39 370.51 403.7 364.5 398.19 C349.7 384.66 306.23 389.21 286.95 390.05 C274.93 390.71 262.94 391.95 250.98 393.21 C250.2 393.3 249.41 393.38 248.6 393.46 C242.99 394.01 242.99 394.01 237.5 395.19 C236.77 396.83 236.11 398.5 235.5 400.19 C230.95 405.76 225.66 407.28 219.09 409.5 C212.76 411.78 209.32 414.69 205.31 420.19 C203.07 423.01 200.88 423.97 197.56 425.31 C191.86 427.93 190.52 431.43 188.12 437.02 C186.33 440.52 184.27 442.78 181.5 445.56 C176.61 450.6 174.45 455.58 171.92 462.06 C169.99 466.32 167.75 469.15 163.5 471.19 C158.29 472.01 154.88 471.07 150.5 468.19 C148.34 465.97 146.39 463.63 144.5 461.19 C143.96 462.1 143.43 463 142.88 463.94 C140.23 467.85 137.17 470.41 132.55 471.76 C128.96 472.4 126.76 472.27 123.25 471.12 C118.26 467.61 116.09 462.61 113.82 457.12 C112.51 454.93 112.51 454.93 109.62 453.38 C106.01 450.84 104.38 448.09 102.44 444.25 C100 439.51 97.44 435.83 93.5 432.19 C92.72 431.38 91.93 430.58 91.12 429.75 C88.04 426.74 84.8 423.96 81.5 421.19 C78.17 418.39 74.94 415.66 71.97 412.47 C69.1 409.82 66.69 408.86 63 407.62 C57.54 405.78 52.94 404.02 50.21 398.66 C47.42 394.63 43.87 394.69 39.26 393.79 C32.78 392.75 26.29 392.05 19.75 391.5 C19.02 391.44 18.29 391.37 17.54 391.31 C-4.96 389.42 -27.26 389.59 -49.75 391.44 C-50.45 391.49 -51.15 391.55 -51.88 391.6 C-66.97 392.36 -66.97 392.36 -80.05 398.63 C-80.43 399.14 -80.8 399.66 -81.19 400.19 C-85.17 405.36 -91.11 406.47 -97.2 408.3 C-104.13 410.4 -109.49 412.39 -114.74 417.6 C-118.69 421.16 -122.92 422.13 -128.12 422.31 C-132.89 420.72 -135.01 418.49 -137.5 414.19 C-139.89 406.15 -139.79 397.78 -139.76 389.47 C-139.76 388.12 -139.77 386.76 -139.77 385.41 C-139.78 381.71 -139.78 378.01 -139.78 374.31 C-139.77 370.31 -139.78 366.32 -139.79 362.32 C-139.8 354.5 -139.8 346.67 -139.8 338.85 C-139.8 332.49 -139.8 326.14 -139.81 319.78 C-139.81 318.87 -139.81 317.97 -139.81 317.03 C-139.81 315.19 -139.81 313.35 -139.81 311.51 C-139.82 294.26 -139.82 277.02 -139.81 259.77 C-139.81 244 -139.82 228.23 -139.84 212.45 C-139.86 196.25 -139.87 180.04 -139.86 163.83 C-139.86 154.74 -139.86 145.64 -139.88 136.55 C-139.89 128.81 -139.89 121.07 -139.88 113.33 C-139.87 109.38 -139.87 105.44 -139.88 101.49 C-139.9 97.88 -139.89 94.26 -139.88 90.64 C-139.87 88.72 -139.89 86.8 -139.9 84.88 C-139.85 77.31 -139.68 69.71 -134.38 63.84 C-133.61 63.27 -132.85 62.71 -132.06 62.12 C-129.08 59.7 -127.06 57.92 -125.56 54.38 C-121.24 44.46 -111.59 36.63 -102.5 31.19 C-101.04 30.62 -99.56 30.09 -98.06 29.62 C-94.36 28.13 -94.08 28.01 -92.44 24.75 C-92.11 23.89 -92.11 23.89 -91.78 23 C-89.21 19.35 -85.34 17.63 -81.11 16.61 C-78.45 16.15 -75.79 15.76 -73.12 15.38 C-65.86 14.18 -60.92 12.97 -55.41 7.86 C-42.43 -3.55 -16.14 0.01 0 0 Z M-37.76 31.89 C-44.86 37.17 -54.74 38.19 -63.24 39.71 C-72.58 41.19 -72.58 41.19 -80.31 46.09 C-80.7 46.76 -81.1 47.43 -81.5 48.12 C-84.47 52.55 -87.65 54.21 -92.5 56.19 C-96.83 58 -97.96 59.91 -99.81 64.06 C-102.31 69.5 -105.28 71.56 -110.5 74.19 C-113.71 75.86 -113.71 75.86 -114.22 78.78 C-115.29 86.5 -115.79 94.02 -115.76 101.82 C-115.76 103.02 -115.77 104.22 -115.77 105.46 C-115.78 108.75 -115.78 112.04 -115.78 115.34 C-115.77 118.91 -115.78 122.47 -115.79 126.04 C-115.8 133.01 -115.8 139.98 -115.8 146.95 C-115.8 152.62 -115.8 158.28 -115.81 163.94 C-115.81 164.75 -115.81 165.56 -115.81 166.39 C-115.81 168.03 -115.81 169.67 -115.81 171.31 C-115.82 186.67 -115.82 202.02 -115.81 217.38 C-115.81 231.44 -115.82 245.49 -115.84 259.55 C-115.86 273.99 -115.87 288.43 -115.86 302.88 C-115.86 310.98 -115.86 319.09 -115.88 327.19 C-115.89 334.08 -115.89 340.97 -115.88 347.86 C-115.87 351.38 -115.87 354.89 -115.88 358.41 C-115.9 362.22 -115.89 366.02 -115.87 369.83 C-115.88 370.95 -115.89 372.07 -115.9 373.22 C-115.89 374.23 -115.88 375.25 -115.87 376.29 C-115.87 377.17 -115.87 378.05 -115.87 378.96 C-115.66 381.25 -115.66 381.25 -114.18 383 C-112.39 384.52 -112.39 384.52 -109.19 384.06 C-102.71 382.53 -99.05 379.97 -94.5 375.19 C-86.52 368.42 -74.97 368.6 -65.02 368.02 C-55.99 367.38 -48.36 365.28 -40.35 361.1 C-25.33 353.69 -1.74 355.82 13.69 360.62 C16.73 361.75 18.92 363.21 21.5 365.19 C28.84 367.78 36.54 368.16 44.25 368.87 C50.88 369.57 55.8 370.65 61.5 374.19 C62.64 375.68 63.78 377.17 64.9 378.68 C68.55 382.12 73.88 383.43 78.5 385.19 C84.7 387.81 88.74 390.28 91.62 396.69 C94.19 400.11 97.3 401.16 101.12 402.94 C106.2 405.6 108.17 410.17 110.5 415.19 C111.49 415.19 112.48 415.19 113.5 415.19 C117.11 411.58 116.63 406.42 116.63 401.55 C116.64 400.44 116.64 399.34 116.64 398.2 C116.64 396.99 116.64 395.79 116.64 394.55 C116.64 393.26 116.65 391.97 116.65 390.65 C116.66 387.08 116.66 383.51 116.66 379.95 C116.66 376.1 116.67 372.25 116.68 368.4 C116.69 359.99 116.7 351.58 116.7 343.17 C116.7 337.92 116.71 332.67 116.71 327.41 C116.72 312.87 116.73 298.33 116.74 283.79 C116.74 282.86 116.74 281.93 116.74 280.97 C116.74 280.04 116.74 279.11 116.74 278.15 C116.74 276.26 116.74 274.37 116.74 272.48 C116.74 271.54 116.74 270.61 116.74 269.64 C116.74 254.45 116.76 239.25 116.79 224.06 C116.81 208.46 116.82 192.85 116.82 177.25 C116.82 168.49 116.83 159.73 116.85 150.98 C116.86 143.52 116.87 136.06 116.86 128.61 C116.86 124.8 116.86 121 116.87 117.2 C116.89 113.07 116.88 108.95 116.87 104.83 C116.88 103.62 116.88 102.42 116.89 101.18 C116.88 93.25 116.88 93.25 113.5 86.19 C112.09 85.3 110.68 84.42 109.24 83.58 C105.94 80.94 103.79 77.25 101.38 73.81 C99.33 70.95 97.09 68.57 94.5 66.19 C89.5 61.19 89.5 61.19 87.38 58.75 C84.63 56.3 82.32 55.01 79.06 53.38 C75.11 51.35 72.89 49.78 70.56 46 C68.15 42.39 66.27 41.46 62.06 40.44 C59.88 40.01 57.69 39.59 55.5 39.19 C47.13 37.26 39.47 35.43 32.5 30.19 C25.44 25.17 16.25 24.83 7.81 24.44 C6.48 24.38 6.48 24.38 5.12 24.31 C-17.73 23.23 -17.73 23.23 -37.76 31.89 Z M255.5 28.19 C255.17 29.18 254.84 30.17 254.5 31.19 C252.73 32.25 252.73 32.25 250.5 33.19 C249.76 33.51 249.03 33.82 248.27 34.15 C241.97 36.59 235.81 38.04 229.16 39.06 C221.88 40.23 221.88 40.23 216.35 44.76 C215.78 45.65 215.78 45.65 215.21 46.55 C212.18 51.16 208 52.95 203.19 55.38 C195.63 59.45 191.46 62.71 187.26 70.27 C184.76 74.42 181.41 77.35 177.8 80.54 C171.43 87.88 170.92 95.53 171.01 104.93 C171 106.19 171 107.45 170.99 108.75 C170.98 112.23 170.99 115.71 171.01 119.19 C171.02 122.96 171.01 126.72 171 130.48 C170.99 137.85 171 145.21 171.02 152.57 C171.04 161.16 171.04 169.74 171.04 178.32 C171.04 193.64 171.06 208.96 171.09 224.28 C171.12 239.13 171.13 253.98 171.13 268.83 C171.13 269.75 171.13 270.66 171.13 271.6 C171.13 272.52 171.13 273.43 171.13 274.37 C171.13 291.3 171.14 308.22 171.16 325.15 C171.16 331.12 171.17 337.1 171.17 343.07 C171.17 350.36 171.18 357.65 171.19 364.94 C171.2 368.66 171.21 372.37 171.21 376.09 C171.21 380.12 171.22 384.16 171.23 388.19 C171.23 389.36 171.23 390.52 171.22 391.72 C171.17 402.14 171.17 402.14 173.5 412.19 C175.48 413.53 175.48 413.53 177.5 414.19 C177.8 413.58 178.11 412.98 178.42 412.36 C181.62 406.25 184.17 402.34 190.94 400 C195.26 397.8 196.66 395.46 199.04 391.34 C201.88 387.15 205.22 385.79 209.94 384.31 C214.63 382.68 217.18 380.96 220.5 377.19 C229.11 369.38 240.14 368.78 251.24 368.01 C258.04 367.47 263.73 366.18 269.38 362.12 C283.06 353.64 307.35 355.93 322.5 359.19 C325.56 360.54 328.41 362.11 331.34 363.73 C341.12 368.24 353.28 368.56 363.9 369.37 C369.48 369.85 376.19 370.49 380.03 374.98 C380.35 375.58 380.67 376.19 381 376.81 C383.31 379.9 384.48 380.18 388.39 380.9 C392.44 381.23 396.44 381.34 400.5 381.19 C402.12 379.57 401.63 377.82 401.64 375.58 C401.64 374.58 401.65 373.58 401.65 372.55 C401.65 370.87 401.65 370.87 401.65 369.17 C401.66 368 401.66 366.82 401.67 365.61 C401.68 362.34 401.68 359.07 401.69 355.8 C401.7 352.28 401.71 348.75 401.72 345.23 C401.74 336.71 401.76 328.19 401.77 319.67 C401.77 317.27 401.78 314.86 401.78 312.46 C401.81 297.51 401.83 282.57 401.84 267.63 C401.84 264.17 401.85 260.71 401.85 257.24 C401.85 256.38 401.85 255.52 401.85 254.63 C401.86 240.7 401.9 226.77 401.94 212.84 C401.98 198.54 402.01 184.24 402.01 169.93 C402.01 161.9 402.03 153.87 402.06 145.84 C402.09 139 402.1 132.16 402.09 125.31 C402.08 121.82 402.08 118.34 402.11 114.85 C402.13 111.06 402.12 107.27 402.11 103.48 C402.12 102.38 402.14 101.29 402.15 100.17 C402.04 89.42 397.53 81.65 391.96 72.72 C391.21 71.5 391.21 71.5 390.44 70.25 C389.93 69.44 389.42 68.62 388.9 67.79 C387.5 65.19 387.5 65.19 386.66 62.02 C385.77 59 385.77 59 383.03 57.82 C381.53 57.35 381.53 57.35 380 56.88 C374.08 54.69 370.3 51.79 365.85 47.37 C359.59 41.56 354.07 40.24 345.88 38.81 C335.65 36.87 327.78 34.26 319.02 28.58 C303.99 20.27 270.98 22.24 255.5 28.19 Z " fill="#000000" transform="translate(503.5,427.8125)"/>
<path d="M0 0 C5.25 0 10.49 -0.01 15.74 -0.01 C25.98 -0.03 36.23 -0.03 46.47 -0.03 C54.8 -0.02 63.12 -0.03 71.45 -0.03 C73.23 -0.03 73.23 -0.03 75.05 -0.03 C77.46 -0.03 79.87 -0.03 82.29 -0.04 C104.87 -0.05 127.46 -0.04 150.04 -0.04 C170.7 -0.03 191.36 -0.04 212.02 -0.06 C233.26 -0.08 254.5 -0.09 275.74 -0.09 C287.66 -0.09 299.57 -0.09 311.49 -0.1 C321.62 -0.11 331.75 -0.12 341.88 -0.1 C347.05 -0.1 352.22 -0.1 357.38 -0.11 C362.11 -0.12 366.84 -0.12 371.57 -0.1 C373.28 -0.1 375 -0.1 376.71 -0.11 C379.03 -0.12 381.36 -0.11 383.69 -0.1 C384.98 -0.1 386.27 -0.1 387.6 -0.1 C393.33 0.48 397.78 2.02 402.26 5.65 C405.49 9.76 405.49 9.76 405.33 13.28 C402.74 19.49 398.41 24.37 392.33 27.28 C386.76 28.17 381.24 28.07 375.61 28.02 C373.89 28.02 372.17 28.03 370.45 28.04 C365.74 28.06 361.02 28.04 356.31 28.01 C351.22 27.99 346.13 28.01 341.04 28.02 C332.22 28.03 323.41 28.03 314.59 28 C301.82 27.97 289.05 27.98 276.29 27.99 C255.55 28.01 234.81 28.01 214.07 27.99 C212.83 27.99 211.59 27.99 210.31 27.99 C209.06 27.99 207.82 27.99 206.54 27.98 C188.95 27.97 171.35 27.96 153.76 27.95 C152.52 27.95 151.28 27.95 150.01 27.95 C129.36 27.95 108.71 27.95 88.06 27.97 C75.33 27.98 62.6 27.97 49.87 27.95 C41.14 27.94 32.41 27.93 23.68 27.94 C18.65 27.94 13.62 27.94 8.59 27.92 C3.97 27.91 -0.64 27.91 -5.26 27.92 C-6.92 27.92 -8.58 27.91 -10.24 27.9 C-24.83 27.82 -38.61 29.67 -52.55 34.15 C-58.6 36.03 -64.54 37.49 -70.8 38.46 C-72.02 38.65 -73.23 38.84 -74.48 39.04 C-76.85 39.4 -79.23 39.72 -81.61 40.01 C-87.77 40.84 -87.77 40.84 -92.63 44.37 C-94.2 46.74 -94.2 46.74 -95.36 49.18 C-97.38 52.4 -100.12 53.17 -103.57 54.47 C-108.16 56.23 -110.72 59.26 -113.49 63.15 C-115.63 66.16 -117.58 68.03 -120.67 70.03 C-125.29 73.2 -126.86 77.26 -128.86 82.37 C-130.78 85.44 -131.66 85.95 -134.73 87.57 C-137.13 88.95 -138.41 89.72 -139.6 92.25 C-140.16 94.69 -140.51 97.1 -140.8 99.59 C-141.09 101.48 -141.38 103.36 -141.68 105.24 C-141.83 106.23 -141.99 107.21 -142.14 108.23 C-143.05 113.42 -144.36 118.49 -145.67 123.59 C-145.91 124.52 -146.15 125.44 -146.39 126.4 C-146.63 127.32 -146.87 128.25 -147.11 129.2 C-147.34 130.11 -147.57 131.02 -147.81 131.96 C-148.4 134.23 -149.03 136.49 -149.68 138.74 C-152.53 149.01 -153.25 158.44 -153.2 169.05 C-153.21 170.79 -153.22 172.53 -153.23 174.26 C-153.25 178.99 -153.25 183.72 -153.24 188.44 C-153.24 193.56 -153.26 198.68 -153.27 203.79 C-153.3 213.8 -153.31 223.81 -153.31 233.81 C-153.31 241.96 -153.32 250.1 -153.33 258.24 C-153.36 283.89 -153.37 309.54 -153.36 335.18 C-153.35 355.37 -153.38 375.55 -153.43 395.74 C-153.48 416.5 -153.5 437.27 -153.49 458.04 C-153.49 469.68 -153.5 481.33 -153.54 492.97 C-153.57 502.88 -153.57 512.8 -153.55 522.71 C-153.53 527.76 -153.53 532.81 -153.56 537.86 C-153.67 558.18 -153.42 576.47 -146.49 595.83 C-145.18 599.75 -144.34 603.75 -143.53 607.8 C-143.38 608.54 -143.22 609.28 -143.07 610.05 C-142.66 612.06 -142.26 614.07 -141.86 616.09 C-141.43 618.23 -141 620.38 -140.57 622.52 C-140.18 624.41 -139.81 626.3 -139.43 628.19 C-138.77 630.89 -138.21 632.96 -136.67 635.28 C-135.56 635.85 -134.45 636.43 -133.3 637.03 C-127.93 639.85 -126.51 644.95 -124.55 650.4 C-122.47 653.58 -121.08 654.31 -117.8 656.09 C-113.83 658.26 -111.99 659.86 -110.05 663.96 C-108.55 667.19 -108.55 667.19 -105.88 669.38 C-103.83 670.1 -101.77 670.69 -99.67 671.28 C-93.79 673.54 -90.03 676.6 -85.92 681.37 C-80.37 686.07 -73.34 686.83 -66.35 687.43 C-65.46 687.51 -64.57 687.59 -63.65 687.68 C-60.73 687.94 -57.81 688.19 -54.88 688.43 C-53.87 688.52 -52.85 688.6 -51.8 688.69 C-30.93 690.44 -10.17 690.86 10.77 690.8 C15.83 690.79 20.9 690.8 25.97 690.81 C35.82 690.83 45.67 690.83 55.53 690.82 C63.56 690.81 71.58 690.81 79.61 690.81 C80.77 690.81 81.92 690.81 83.11 690.81 C85.46 690.81 87.81 690.82 90.15 690.82 C112.03 690.83 133.9 690.82 155.77 690.79 C174.42 690.78 193.08 690.78 211.73 690.8 C233.54 690.82 255.35 690.83 277.16 690.82 C279.5 690.81 281.84 690.81 284.18 690.81 C285.32 690.81 286.47 690.81 287.66 690.81 C295.65 690.81 303.64 690.81 311.64 690.82 C321.41 690.83 331.19 690.83 340.97 690.81 C345.93 690.8 350.89 690.79 355.85 690.81 C376.71 690.86 397.36 690.23 418.15 688.43 C419.13 688.35 420.11 688.27 421.12 688.18 C423.89 687.95 426.65 687.69 429.42 687.43 C430.23 687.36 431.05 687.29 431.89 687.21 C437.07 686.68 442.1 685.84 445.7 681.7 C446.05 681.15 446.4 680.59 446.76 680.03 C449.82 676.19 453.46 674.42 457.83 672.4 C458.47 672.1 459.11 671.8 459.77 671.5 C463.6 669.81 467.17 668.78 471.33 668.28 C471.57 667.22 471.82 666.17 472.08 665.09 C473.39 660.63 475.22 657.56 479.3 655.08 C484.71 652.28 484.71 652.28 487.33 652.28 C487.56 651.26 487.56 651.26 487.81 650.22 C490.3 640.26 493.11 632.22 501.56 625.94 C506.03 621.73 505.89 615.51 506.38 609.75 C506.47 608.79 506.55 607.84 506.64 606.85 C506.91 603.68 507.17 600.51 507.42 597.34 C507.51 596.23 507.6 595.13 507.69 593.99 C509.67 568.95 509.86 544 509.77 518.9 C509.75 512.73 509.76 506.56 509.77 500.39 C509.8 482.2 509.78 464.01 509.75 445.81 C509.73 431.54 509.72 417.26 509.75 402.98 C509.76 395.69 509.75 388.39 509.72 381.09 C509.71 376.57 509.71 372.06 509.73 367.54 C509.73 365.45 509.72 363.37 509.71 361.28 C509.55 340.16 509.55 340.16 516.77 331.56 C519.9 328.98 524.49 329.99 528.33 330.22 C531.6 330.55 533.94 331 536.64 332.92 C541.71 339.56 542.62 346.56 542.59 354.66 C542.59 355.6 542.59 356.53 542.6 357.5 C542.61 360.64 542.61 363.77 542.6 366.91 C542.61 369.16 542.61 371.41 542.62 373.66 C542.63 379.77 542.63 385.89 542.63 392 C542.63 397.11 542.63 402.23 542.64 407.34 C542.65 420.1 542.65 432.85 542.64 445.61 C542.64 456.66 542.65 467.71 542.67 478.76 C542.69 490.13 542.69 501.5 542.69 512.87 C542.69 519.24 542.69 525.61 542.7 531.99 C542.72 537.99 542.72 543.99 542.7 550 C542.7 552.19 542.7 554.38 542.71 556.58 C542.77 572 542.51 586.44 535.52 600.53 C532.6 607.24 531.69 614.69 530.65 621.89 C528.25 638.44 528.25 638.44 523.33 643.28 C521.84 644.11 521.84 644.11 520.33 644.96 C516.76 647.72 516.34 649.45 514.89 653.65 C512.86 659.49 510.74 663.15 505.33 666.28 C504.34 666.61 503.35 666.94 502.33 667.28 C501.15 669.44 501.15 669.44 500.14 672.03 C497.9 676.79 495.76 678.81 491.19 681.27 C487.8 683.1 485.79 685.4 484.01 688.78 C480.8 693.54 476.09 695.11 470.76 696.53 C466.99 697.68 465.54 698.93 463.39 702.21 C460.05 707.26 455.99 708.58 450.33 710.28 C446.33 711.08 442.31 711.58 438.26 712.09 C429.65 713.3 421.99 714.96 414.16 718.81 C403.08 724.15 390.64 723.57 378.63 723.54 C376.85 723.54 375.08 723.54 373.3 723.55 C368.44 723.56 363.59 723.56 358.73 723.55 C353.48 723.55 348.23 723.56 342.99 723.57 C332.72 723.58 322.45 723.58 312.17 723.58 C303.82 723.58 295.47 723.58 287.12 723.58 C285.34 723.58 285.34 723.58 283.51 723.58 C281.1 723.59 278.68 723.59 276.26 723.59 C253.6 723.6 230.94 723.6 208.28 723.59 C187.57 723.59 166.86 723.6 146.15 723.62 C124.87 723.64 103.58 723.64 82.3 723.64 C70.35 723.64 58.41 723.64 46.47 723.65 C36.3 723.67 26.14 723.67 15.97 723.66 C10.79 723.65 5.6 723.65 0.42 723.66 C-4.33 723.67 -9.09 723.67 -13.84 723.65 C-15.55 723.65 -17.26 723.65 -18.97 723.66 C-31.93 723.72 -45.73 723.42 -57.49 717.34 C-65.64 713.38 -73.25 712.41 -82.19 711.55 C-88.95 710.79 -95.73 709.81 -100.31 704.31 C-100.66 703.66 -101 703.01 -101.36 702.34 C-104.69 697.42 -108.96 696.4 -114.41 694.55 C-121.04 691.96 -125.9 687.54 -130.17 681.92 C-132.24 679.65 -134.62 677.91 -137.05 676.03 C-144.06 670.39 -148.68 664.37 -151.74 655.9 C-153.41 651.29 -155.35 649.71 -159.67 647.28 C-163.13 643.63 -164.33 640.75 -165.24 635.84 C-165.48 634.62 -165.72 633.4 -165.96 632.14 C-166.32 630.19 -166.68 628.24 -167.03 626.29 C-167.38 624.37 -167.74 622.45 -168.11 620.53 C-168.32 619.38 -168.52 618.23 -168.73 617.04 C-169.38 614.17 -169.38 614.17 -171.61 613.12 C-172.29 612.84 -172.97 612.56 -173.67 612.28 C-186.97 597.14 -180.96 559.99 -180.94 541 C-180.93 535.68 -180.94 530.37 -180.94 525.05 C-180.95 514.67 -180.95 504.28 -180.94 493.89 C-180.94 485.45 -180.94 477 -180.94 468.55 C-180.94 467.34 -180.94 466.14 -180.94 464.89 C-180.94 462.44 -180.94 459.99 -180.94 457.54 C-180.95 434.6 -180.94 411.66 -180.93 388.72 C-180.92 369.08 -180.93 349.43 -180.93 329.79 C-180.95 306.92 -180.95 284.06 -180.94 261.19 C-180.94 258.75 -180.94 256.31 -180.94 253.87 C-180.94 252.67 -180.94 251.47 -180.94 250.23 C-180.94 241.8 -180.94 233.37 -180.95 224.94 C-180.95 214.66 -180.95 204.37 -180.94 194.09 C-180.93 188.85 -180.93 183.61 -180.94 178.37 C-180.94 173.56 -180.94 168.75 -180.93 163.95 C-180.93 162.22 -180.93 160.5 -180.93 158.77 C-180.96 149.46 -180.63 140.24 -179.81 130.97 C-179.73 130.09 -179.66 129.21 -179.58 128.31 C-178.86 120.99 -177.22 114.5 -171.61 109.4 C-169.2 106.76 -168.8 104.83 -168.11 101.34 C-167.87 100.19 -167.63 99.04 -167.38 97.86 C-166.92 95.52 -166.47 93.17 -166.03 90.82 C-164.4 82.65 -161.91 77.71 -156.2 71.73 C-153.13 68.41 -151.16 65.31 -149.32 61.15 C-146.2 54.13 -143.05 50.56 -136.19 46.86 C-132.93 44.81 -131.52 42.58 -129.87 39.17 C-127.03 34.67 -122.51 32.59 -117.8 30.46 C-113.13 28.21 -109.84 26 -106.56 21.99 C-100.86 16.83 -93.86 15.44 -86.49 14.21 C-79.59 13.05 -74.76 11.87 -69.3 7.28 C-63.78 3.07 -58.16 1.71 -51.34 1.11 C-50.46 1.03 -49.57 0.95 -48.66 0.86 C-32.49 -0.38 -16.2 -0.01 0 0 Z " fill="#000000" transform="translate(465.67359125614166,284.7238916158676)"/>
<path d="M0 0 C1.08 0.08 1.08 0.08 2.18 0.15 C6.4 0.6 9.17 1.2 12 4.44 C13.18 6.2 13.18 6.2 14.12 8.19 C14.47 8.89 14.81 9.59 15.16 10.31 C16.38 13.96 16.49 17.42 16.53 21.23 C16.54 22.01 16.55 22.78 16.57 23.57 C16.58 25.2 16.6 26.82 16.61 28.45 C16.62 30.92 16.69 33.38 16.75 35.84 C16.86 43.98 16.92 50.18 11.52 56.76 C8.4 59.95 5.2 59.72 0.88 60.06 C0.11 60.15 -0.65 60.23 -1.44 60.32 C-5.64 60.64 -7.28 60.64 -10.73 58.01 C-14.97 52.43 -16.34 48.71 -16.31 41.67 C-16.31 40.85 -16.32 40.03 -16.32 39.19 C-16.33 37.47 -16.33 35.74 -16.32 34.01 C-16.31 31.39 -16.34 28.77 -16.37 26.15 C-16.37 24.47 -16.37 22.79 -16.37 21.11 C-16.38 20.33 -16.39 19.56 -16.41 18.76 C-16.32 11.99 -13.98 7.17 -10.12 1.7 C-6.84 -0.51 -3.79 -0.29 0 0 Z " fill="#000000" transform="translate(991.875,520.8125)"/>
<path d="M0 0 C4.34 2.17 5.38 5.07 7 9.5 C7.43 10.63 7.87 11.77 8.31 12.94 C9.77 20.52 8.28 25.88 4.23 32.36 C2.78 34.67 2.78 34.67 2 38.31 C-0.96 43.03 -4.85 43.48 -10.07 44.87 C-13 45.5 -13 45.5 -15 45.5 C-15.26 44.45 -15.26 44.45 -15.52 43.38 C-17.08 37.26 -19.03 32.05 -22 26.5 C-24.75 18.24 -22.46 10.2 -19 2.5 C-15.18 -2.99 -5.87 -1.06 0 0 Z " fill="#000000" transform="translate(999,468.5)"/>
</svg>
